<?xml version="1.0" standalone="no"?>
<!DOCTYPE svg PUBLIC "-//W3C//DTD SVG 20010904//EN"
 "http://www.w3.org/TR/2001/REC-SVG-20010904/DTD/svg10.dtd">
<svg version="1.0" xmlns="http://www.w3.org/2000/svg"
 width="960.000000pt" height="960.000000pt" viewBox="0 0 960.000000 960.000000"
 preserveAspectRatio="xMidYMid meet">
<metadata>
Created by potrace 1.11, written by Peter Selinger 2001-2013
</metadata>
<g transform="translate(0.000000,960.000000) scale(0.100000,-0.100000)"
fill="#000000" stroke="none">
<path d="M4571 8651 l-223 -539 17 -73 c9 -41 52 -223 96 -405 l79 -331 -256
-494 c-141 -272 -294 -566 -340 -654 l-84 -160 0 470 0 470 88 -88 88 -88 151
658 c83 362 150 659 149 660 -1 1 -109 -253 -240 -565 -131 -312 -245 -582
-253 -601 -9 -19 -100 -236 -204 -483 l-188 -449 672 -2734 c369 -1504 673
-2735 676 -2735 4 0 304 1233 668 2740 l663 2739 -26 58 c-31 71 -266 639
-606 1463 -461 1117 -683 1648 -686 1640 -2 -4 18 -144 44 -311 l46 -304 155
-303 c85 -166 158 -300 163 -297 4 3 11 27 15 53 10 71 21 82 29 25 3 -26 81
-343 172 -703 91 -360 202 -807 246 -992 l81 -337 -104 -600 c-57 -330 -106
-597 -110 -593 -3 4 -64 273 -135 597 l-129 590 3 482 c3 464 3 484 -16 510
-10 16 -41 69 -67 118 -115 214 -124 229 -129 215 -3 -8 -64 -287 -137 -620
-72 -333 -134 -613 -138 -622 -3 -9 -5 526 -3 1190 1 664 1 1372 0 1574 l-3
367 -224 -538z"/>
</g>
</svg>
